{
	"asset":{
		"generator":"Khronos glTF Blender I/O v3.6.28",
		"version":"2.0"
	},
	"scene":0,
	"scenes":[
		{
			"name":"Scene",
			"nodes":[
				0,
				1,
				2,
				3,
				4,
				5,
				6
			]
		}
	],
	"nodes":[
		{
			"mesh":0,
			"name":"Cube",
			"rotation":[
				0.0007761031156405807,
				0,
				0,
				1
			],
			"translation":[
				0,
				0.00010579824447631836,
				-0.0006190240383148193
			]
		},
		{
			"mesh":1,
			"name":"Cylinder",
			"rotation":[
				0.0007761031156405807,
				0,
				0,
				1
			],
			"translation":[
				0,
				1.0174883604049683,
				0.20760813355445862
			]
		},
		{
			"mesh":2,
			"name":"Cylinder.001",
			"rotation":[
				0.5003878474235535,
				0.500387966632843,
				-0.49961188435554504,
				0.49961182475090027
			],
			"scale":[
				0.9490213990211487,
				0.9490213990211487,
				0.9490213990211487
			],
			"translation":[
				-1.743389368057251,
				1.0177713632583618,
				0.20663966238498688
			]
		},
		{
			"mesh":3,
			"name":"Cylinder.002",
			"rotation":[
				0.0007761031738482416,
				0,
				0,
				1
			],
			"scale":[
				1.1288288831710815,
				1.128829002380371,
				1.128829002380371
			],
			"translation":[
				-1.5113410949707031,
				1.626908540725708,
				0.19710761308670044
			]
		},
		{
			"mesh":4,
			"name":"Cube.001",
			"rotation":[
				0.0007761031156405807,
				0,
				0,
				1
			],
			"translation":[
				0,
				0.00010579824447631836,
				-0.0006190240383148193
			]
		},
		{
			"mesh":5,
			"name":"Cube.002",
			"rotation":[
				0.0007761031156405807,
				0,
				0,
				1
			],
			"translation":[
				0,
				2.0008039474487305,
				-0.07166384160518646
			]
		},
		{
			"mesh":6,
			"name":"Cylinder.003",
			"rotation":[
				0.0007761031156405807,
				0,
				0,
				1
			],
			"translation":[
				0,
				0.017768383026123047,
				-0.0005916506052017212
			]
		}
	],
	"materials":[
		{
			"doubleSided":true,
			"name":"Orange Plastic",
			"pbrMetallicRoughness":{}
		},
		{
			"alphaMode":"BLEND",
			"doubleSided":true,
			"name":"Plastic Shader",
			"pbrMetallicRoughness":{}
		},
		{
			"name":"TVScreen",
			"pbrMetallicRoughness":{
				"baseColorFactor":[
					0,
					0,
					0,
					1
				],
				"metallicFactor":0,
				"roughnessFactor":0.20454545319080353
			}
		}
	],
	"meshes":[
		{
			"name":"Cube",
			"primitives":[
				{
					"attributes":{
						"POSITION":0,
						"NORMAL":1,
						"TEXCOORD_0":2,
						"TEXCOORD_1":3
					},
					"indices":4,
					"material":0
				}
			]
		},
		{
			"name":"Cylinder",
			"primitives":[
				{
					"attributes":{
						"POSITION":5,
						"NORMAL":6,
						"TEXCOORD_0":7,
						"TEXCOORD_1":8
					},
					"indices":9,
					"material":0
				}
			]
		},
		{
			"name":"Cylinder.001",
			"primitives":[
				{
					"attributes":{
						"POSITION":10,
						"NORMAL":11,
						"TEXCOORD_0":12
					},
					"indices":13,
					"material":1
				}
			]
		},
		{
			"name":"Cylinder.002",
			"primitives":[
				{
					"attributes":{
						"POSITION":14,
						"NORMAL":15,
						"TEXCOORD_0":16
					},
					"indices":17,
					"material":0
				}
			]
		},
		{
			"name":"Cube.001",
			"primitives":[
				{
					"attributes":{
						"POSITION":18,
						"NORMAL":19,
						"TEXCOORD_0":20,
						"TEXCOORD_1":21
					},
					"indices":22,
					"material":2
				}
			]
		},
		{
			"name":"Cube.002",
			"primitives":[
				{
					"attributes":{
						"POSITION":23,
						"NORMAL":24,
						"TEXCOORD_0":25,
						"TEXCOORD_1":26
					},
					"indices":27,
					"material":1
				}
			]
		},
		{
			"name":"Cylinder.003",
			"primitives":[
				{
					"attributes":{
						"POSITION":28,
						"NORMAL":29,
						"TEXCOORD_0":30
					},
					"indices":31,
					"material":0
				}
			]
		}
	],
	"accessors":[
		{
			"bufferView":0,
			"componentType":5126,
			"count":216,
			"max":[
				1.600480079650879,
				1.9939976930618286,
				1
			],
			"min":[
				-1.600480079650879,
				-0.006002306938171387,
				-1
			],
			"type":"VEC3"
		},
		{
			"bufferView":1,
			"componentType":5126,
			"count":216,
			"type":"VEC3"
		},
		{
			"bufferView":2,
			"componentType":5126,
			"count":216,
			"type":"VEC2"
		},
		{
			"bufferView":3,
			"componentType":5126,
			"count":216,
			"type":"VEC2"
		},
		{
			"bufferView":4,
			"componentType":5123,
			"count":612,
			"type":"SCALAR"
		},
		{
			"bufferView":5,
			"componentType":5126,
			"count":138,
			"max":[
				1.707906723022461,
				0.5181277990341187,
				0.5181276202201843
			],
			"min":[
				-1.707906723022461,
				-0.5181275010108948,
				-0.5181276202201843
			],
			"type":"VEC3"
		},
		{
			"bufferView":6,
			"componentType":5126,
			"count":138,
			"type":"VEC3"
		},
		{
			"bufferView":7,
			"componentType":5126,
			"count":138,
			"type":"VEC2"
		},
		{
			"bufferView":8,
			"componentType":5126,
			"count":138,
			"type":"VEC2"
		},
		{
			"bufferView":9,
			"componentType":5123,
			"count":372,
			"type":"SCALAR"
		},
		{
			"bufferView":10,
			"componentType":5126,
			"count":1478,
			"max":[
				0.4020531475543976,
				0.07539211213588715,
				0.4020531475543976
			],
			"min":[
				-0.4020531475543976,
				-0.07539211213588715,
				-0.4020531475543976
			],
			"type":"VEC3"
		},
		{
			"bufferView":11,
			"componentType":5126,
			"count":1478,
			"type":"VEC3"
		},
		{
			"bufferView":12,
			"componentType":5126,
			"count":1478,
			"type":"VEC2"
		},
		{
			"bufferView":13,
			"componentType":5123,
			"count":5364,
			"type":"SCALAR"
		},
		{
			"bufferView":14,
			"componentType":5126,
			"count":258,
			"max":[
				0.09635551273822784,
				0.680419921875,
				0.09635552018880844
			],
			"min":[
				-0.09635551273822784,
				-0.680419921875,
				-0.09635552018880844
			],
			"type":"VEC3"
		},
		{
			"bufferView":15,
			"componentType":5126,
			"count":258,
			"type":"VEC3"
		},
		{
			"bufferView":16,
			"componentType":5126,
			"count":258,
			"type":"VEC2"
		},
		{
			"bufferView":17,
			"componentType":5123,
			"count":756,
			"type":"SCALAR"
		},
		{
			"bufferView":18,
			"componentType":5126,
			"count":1270,
			"max":[
				1.4290826320648193,
				1.834914207458496,
				1.0170855522155762
			],
			"min":[
				-1.4290826320648193,
				0.14860695600509644,
				0.8212758898735046
			],
			"type":"VEC3"
		},
		{
			"bufferView":19,
			"componentType":5126,
			"count":1270,
			"type":"VEC3"
		},
		{
			"bufferView":20,
			"componentType":5126,
			"count":1270,
			"type":"VEC2"
		},
		{
			"bufferView":21,
			"componentType":5126,
			"count":1270,
			"type":"VEC2"
		},
		{
			"bufferView":22,
			"componentType":5123,
			"count":4356,
			"type":"SCALAR"
		},
		{
			"bufferView":23,
			"componentType":5126,
			"count":24,
			"max":[
				0.4001241624355316,
				0.14854896068572998,
				0.2830653786659241
			],
			"min":[
				-0.4001241624355316,
				-0.14854896068572998,
				-0.2830653786659241
			],
			"type":"VEC3"
		},
		{
			"bufferView":24,
			"componentType":5126,
			"count":24,
			"type":"VEC3"
		},
		{
			"bufferView":25,
			"componentType":5126,
			"count":24,
			"type":"VEC2"
		},
		{
			"bufferView":26,
			"componentType":5126,
			"count":24,
			"type":"VEC2"
		},
		{
			"bufferView":27,
			"componentType":5123,
			"count":36,
			"type":"SCALAR"
		},
		{
			"bufferView":28,
			"componentType":5126,
			"count":1520,
			"max":[
				0.7975006699562073,
				0.1441439837217331,
				0.7975006699562073
			],
			"min":[
				-0.7975006699562073,
				-0.1441439837217331,
				-0.7975006699562073
			],
			"type":"VEC3"
		},
		{
			"bufferView":29,
			"componentType":5126,
			"count":1520,
			"type":"VEC3"
		},
		{
			"bufferView":30,
			"componentType":5126,
			"count":1520,
			"type":"VEC2"
		},
		{
			"bufferView":31,
			"componentType":5123,
			"count":5364,
			"type":"SCALAR"
		}
	],
	"bufferViews":[
		{
			"buffer":0,
			"byteLength":2592,
			"byteOffset":0,
			"target":34962
		},
		{
			"buffer":0,
			"byteLength":2592,
			"byteOffset":2592,
			"target":34962
		},
		{
			"buffer":0,
			"byteLength":1728,
			"byteOffset":5184,
			"target":34962
		},
		{
			"buffer":0,
			"byteLength":1728,
			"byteOffset":6912,
			"target":34962
		},
		{
			"buffer":0,
			"byteLength":1224,
			"byteOffset":8640,
			"target":34963
		},
		{
			"buffer":0,
			"byteLength":1656,
			"byteOffset":9864,
			"target":34962
		},
		{
			"buffer":0,
			"byteLength":1656,
			"byteOffset":11520,
			"target":34962
		},
		{
			"buffer":0,
			"byteLength":1104,
			"byteOffset":13176,
			"target":34962
		},
		{
			"buffer":0,
			"byteLength":1104,
			"byteOffset":14280,
			"target":34962
		},
		{
			"buffer":0,
			"byteLength":744,
			"byteOffset":15384,
			"target":34963
		},
		{
			"buffer":0,
			"byteLength":17736,
			"byteOffset":16128,
			"target":34962
		},
		{
			"buffer":0,
			"byteLength":17736,
			"byteOffset":33864,
			"target":34962
		},
		{
			"buffer":0,
			"byteLength":11824,
			"byteOffset":51600,
			"target":34962
		},
		{
			"buffer":0,
			"byteLength":10728,
			"byteOffset":63424,
			"target":34963
		},
		{
			"buffer":0,
			"byteLength":3096,
			"byteOffset":74152,
			"target":34962
		},
		{
			"buffer":0,
			"byteLength":3096,
			"byteOffset":77248,
			"target":34962
		},
		{
			"buffer":0,
			"byteLength":2064,
			"byteOffset":80344,
			"target":34962
		},
		{
			"buffer":0,
			"byteLength":1512,
			"byteOffset":82408,
			"target":34963
		},
		{
			"buffer":0,
			"byteLength":15240,
			"byteOffset":83920,
			"target":34962
		},
		{
			"buffer":0,
			"byteLength":15240,
			"byteOffset":99160,
			"target":34962
		},
		{
			"buffer":0,
			"byteLength":10160,
			"byteOffset":114400,
			"target":34962
		},
		{
			"buffer":0,
			"byteLength":10160,
			"byteOffset":124560,
			"target":34962
		},
		{
			"buffer":0,
			"byteLength":8712,
			"byteOffset":134720,
			"target":34963
		},
		{
			"buffer":0,
			"byteLength":288,
			"byteOffset":143432,
			"target":34962
		},
		{
			"buffer":0,
			"byteLength":288,
			"byteOffset":143720,
			"target":34962
		},
		{
			"buffer":0,
			"byteLength":192,
			"byteOffset":144008,
			"target":34962
		},
		{
			"buffer":0,
			"byteLength":192,
			"byteOffset":144200,
			"target":34962
		},
		{
			"buffer":0,
			"byteLength":72,
			"byteOffset":144392,
			"target":34963
		},
		{
			"buffer":0,
			"byteLength":18240,
			"byteOffset":144464,
			"target":34962
		},
		{
			"buffer":0,
			"byteLength":18240,
			"byteOffset":162704,
			"target":34962
		},
		{
			"buffer":0,
			"byteLength":12160,
			"byteOffset":180944,
			"target":34962
		},
		{
			"buffer":0,
			"byteLength":10728,
			"byteOffset":193104,
			"target":34963
		}
	],
	"buffers":[
		{
			"byteLength":203832,
			"uri":"data:application/octet-stream;base64,"
		}
	]
}
