{
  "asset": {
    "version": "2.0",
    "generator": "THREE.GLTFExporter"
  },
  "scenes": [
    {
      "name": "Scene",
      "nodes": [
        9
      ]
    }
  ],
  "scene": 0,
  "nodes": [
    {
      "name": "Cube001",
      "extras": {
        "name": "Cube.001"
      },
      "mesh": 0
    },
    {
      "name": "Cube001_1",
      "extras": {
        "name": "Cube001"
      },
      "mesh": 1
    },
    {
      "matrix": [
        1,
        0,
        0,
        0,
        0,
        1,
        0,
        0,
        0,
        0,
        1,
        0,
        0,
        2.0005860328674316,
        -0.07415022701025009,
        1
      ],
      "name": "Cube002",
      "extras": {
        "name": "Cube002"
      },
      "mesh": 2
    },
    {
      "matrix": [
        1,
        0,
        0,
        0,
        0,
        1,
        0,
        0,
        0,
        0,
        1,
        0,
        0,
        1.0177046060562134,
        0.20664775371551514,
        1
      ],
      "name": "Cylinder",
      "extras": {
        "name": "Cylinder"
      },
      "mesh": 3
    },
    {
      "matrix": [
        0,
        0,
        -0.9490213990211487,
        0,
        0.9490213990211487,
        0,
        0,
        0,
        0,
        -0.9490213990211487,
        0,
        0,
        -1.7433892488479614,
        1.0179860591888428,
        0.2056788057088852,
        1
      ],
      "name": "Cylinder001",
      "extras": {
        "name": "Cylinder001"
      },
      "mesh": 4
    },
    {
      "matrix": [
        1,
        0,
        0,
        0,
        0,
        1,
        0,
        0,
        0,
        0,
        1,
        0,
        -1.5561749935150146,
        1.7338831424713135,
        0.19968554377555847,
        1
      ],
      "name": "Cylinder002",
      "extras": {
        "name": "Cylinder002"
      },
      "mesh": 5
    },
    {
      "matrix": [
        1,
        0,
        0,
        0,
        0,
        1,
        0,
        0,
        0,
        0,
        1,
        0,
        0,
        0.017662663012742996,
        0,
        1
      ],
      "name": "Cylinder003",
      "extras": {
        "name": "Cylinder003"
      },
      "mesh": 6
    },
    {
      "name": "bot-drafts-4glb",
      "extras": {
        "name": "bot-drafts-4glb"
      },
      "children": [
        0,
        1,
        2,
        3,
        4,
        5,
        6
      ]
    },
    {
      "name": "bot-draftsglb",
      "extras": {
        "name": "bot-drafts.glb"
      },
      "children": [
        7
      ]
    },
    {
      "name": "light-update-model.glb",
      "children": [
        8
      ]
    }
  ],
  "bufferViews": [
    {
      "buffer": 0,
      "byteOffset": 0,
      "byteLength": 64152,
      "target": 34962,
      "byteStride": 12
    },
    {
      "buffer": 0,
      "byteOffset": 64152,
      "byteLength": 64152,
      "target": 34962,
      "byteStride": 12
    },
    {
      "buffer": 0,
      "byteOffset": 128304,
      "byteLength": 42768,
      "target": 34962,
      "byteStride": 8
    },
    {
      "buffer": 0,
      "byteOffset": 171072,
      "byteLength": 42768,
      "target": 34962,
      "byteStride": 8
    },
    {
      "buffer": 0,
      "byteOffset": 213840,
      "byteLength": 41160,
      "target": 34963
    },
    {
      "buffer": 0,
      "byteOffset": 255000,
      "byteLength": 15240,
      "target": 34962,
      "byteStride": 12
    },
    {
      "buffer": 0,
      "byteOffset": 270240,
      "byteLength": 15240,
      "target": 34962,
      "byteStride": 12
    },
    {
      "buffer": 0,
      "byteOffset": 285480,
      "byteLength": 10160,
      "target": 34962,
      "byteStride": 8
    },
    {
      "buffer": 0,
      "byteOffset": 295640,
      "byteLength": 10160,
      "target": 34962,
      "byteStride": 8
    },
    {
      "buffer": 0,
      "byteOffset": 305800,
      "byteLength": 8712,
      "target": 34963
    },
    {
      "buffer": 0,
      "byteOffset": 314512,
      "byteLength": 190272,
      "target": 34962,
      "byteStride": 12
    },
    {
      "buffer": 0,
      "byteOffset": 504784,
      "byteLength": 190272,
      "target": 34962,
      "byteStride": 12
    },
    {
      "buffer": 0,
      "byteOffset": 695056,
      "byteLength": 126848,
      "target": 34962,
      "byteStride": 8
    },
    {
      "buffer": 0,
      "byteOffset": 821904,
      "byteLength": 126848,
      "target": 34962,
      "byteStride": 8
    },
    {
      "buffer": 0,
      "byteOffset": 948752,
      "byteLength": 179976,
      "target": 34963
    },
    {
      "buffer": 0,
      "byteOffset": 1128728,
      "byteLength": 66024,
      "target": 34962,
      "byteStride": 12
    },
    {
      "buffer": 0,
      "byteOffset": 1194752,
      "byteLength": 66024,
      "target": 34962,
      "byteStride": 12
    },
    {
      "buffer": 0,
      "byteOffset": 1260776,
      "byteLength": 44016,
      "target": 34962,
      "byteStride": 8
    },
    {
      "buffer": 0,
      "byteOffset": 1304792,
      "byteLength": 44016,
      "target": 34962,
      "byteStride": 8
    },
    {
      "buffer": 0,
      "byteOffset": 1348808,
      "byteLength": 38376,
      "target": 34963
    },
    {
      "buffer": 0,
      "byteOffset": 1387184,
      "byteLength": 35736,
      "target": 34962,
      "byteStride": 12
    },
    {
      "buffer": 0,
      "byteOffset": 1422920,
      "byteLength": 35736,
      "target": 34962,
      "byteStride": 12
    },
    {
      "buffer": 0,
      "byteOffset": 1458656,
      "byteLength": 23824,
      "target": 34962,
      "byteStride": 8
    },
    {
      "buffer": 0,
      "byteOffset": 1482480,
      "byteLength": 21456,
      "target": 34963
    },
    {
      "buffer": 0,
      "byteOffset": 1503936,
      "byteLength": 119856,
      "target": 34962,
      "byteStride": 12
    },
    {
      "buffer": 0,
      "byteOffset": 1623792,
      "byteLength": 119856,
      "target": 34962,
      "byteStride": 12
    },
    {
      "buffer": 0,
      "byteOffset": 1743648,
      "byteLength": 79904,
      "target": 34962,
      "byteStride": 8
    },
    {
      "buffer": 0,
      "byteOffset": 1823552,
      "byteLength": 76752,
      "target": 34963
    },
    {
      "buffer": 0,
      "byteOffset": 1900304,
      "byteLength": 18240,
      "target": 34962,
      "byteStride": 12
    },
    {
      "buffer": 0,
      "byteOffset": 1918544,
      "byteLength": 18240,
      "target": 34962,
      "byteStride": 12
    },
    {
      "buffer": 0,
      "byteOffset": 1936784,
      "byteLength": 12160,
      "target": 34962,
      "byteStride": 8
    },
    {
      "buffer": 0,
      "byteOffset": 1948944,
      "byteLength": 10728,
      "target": 34963
    }
  ],
  "buffers": [
    {
      "byteLength": 1959672,
      "uri": "data:application/octet-stream;base64,"
    }
  ],
  "accessors": [
    {
      "bufferView": 0,
      "componentType": 5126,
      "count": 5346,
      "max": [
        1.600480079650879,
        1.9939976930618286,
        1
      ],
      "min": [
        -1.600480079650879,
        -0.006002306938171387,
        -1
      ],
      "type": "VEC3"
    },
    {
      "bufferView": 1,
      "componentType": 5126,
      "count": 5346,
      "max": [
        0.999162495136261,
        0.9999825954437256,
        1
      ],
      "min": [
        -0.999162495136261,
        -0.9999825954437256,
        -1
      ],
      "type": "VEC3"
    },
    {
      "bufferView": 2,
      "componentType": 5126,
      "count": 5346,
      "max": [
        0.8750000596046448,
        1
      ],
      "min": [
        0.125,
        0
      ],
      "type": "VEC2"
    },
    {
      "bufferView": 3,
      "componentType": 5126,
      "count": 5346,
      "max": [
        2.100480079650879,
        1.5
      ],
      "min": [
        -1.100480079650879,
        -0.5000001192092896
      ],
      "type": "VEC2"
    },
    {
      "bufferView": 4,
      "componentType": 5123,
      "count": 20580,
      "max": [
        5345
      ],
      "min": [
        0
      ],
      "type": "SCALAR"
    },
    {
      "bufferView": 5,
      "componentType": 5126,
      "count": 1270,
      "max": [
        1.4290826320648193,
        1.834914207458496,
        1.0170855522155762
      ],
      "min": [
        -1.4290826320648193,
        0.14860695600509644,
        0.8212758898735046
      ],
      "type": "VEC3"
    },
    {
      "bufferView": 6,
      "componentType": 5126,
      "count": 1270,
      "max": [
        0.9994012713432312,
        0.9995225071907043,
        0.9994449019432068
      ],
      "min": [
        -0.9994012713432312,
        -0.9995225071907043,
        -1
      ],
      "type": "VEC3"
    },
    {
      "bufferView": 7,
      "componentType": 5126,
      "count": 1270,
      "max": [
        0.875,
        1
      ],
      "min": [
        0.125,
        0
      ],
      "type": "VEC2"
    },
    {
      "bufferView": 8,
      "componentType": 5126,
      "count": 1270,
      "max": [
        0.9481738805770874,
        1.9861745834350586
      ],
      "min": [
        0.03790178894996643,
        0.14649170637130737
      ],
      "type": "VEC2"
    },
    {
      "bufferView": 9,
      "componentType": 5123,
      "count": 4356,
      "max": [
        1269
      ],
      "min": [
        0
      ],
      "type": "SCALAR"
    },
    {
      "bufferView": 10,
      "componentType": 5126,
      "count": 15856,
      "max": [
        0.4001241624355316,
        0.14854896068572998,
        0.2830653786659241
      ],
      "min": [
        -0.4001241624355316,
        -0.14854896068572998,
        -0.2830653786659241
      ],
      "type": "VEC3"
    },
    {
      "bufferView": 11,
      "componentType": 5126,
      "count": 15856,
      "max": [
        0.9991117119789124,
        0.9993597269058228,
        0.9993597269058228
      ],
      "min": [
        -0.9991117119789124,
        -0.9993597269058228,
        -0.9993597269058228
      ],
      "type": "VEC3"
    },
    {
      "bufferView": 12,
      "componentType": 5126,
      "count": 15856,
      "max": [
        0.875,
        0.9439175128936768
      ],
      "min": [
        0.125,
        0
      ],
      "type": "VEC2"
    },
    {
      "bufferView": 13,
      "componentType": 5126,
      "count": 15856,
      "max": [
        0.9001242518424988,
        0.7830653786659241
      ],
      "min": [
        0.09987583011388779,
        0.21693456172943115
      ],
      "type": "VEC2"
    },
    {
      "bufferView": 14,
      "componentType": 5123,
      "count": 89988,
      "max": [
        15855
      ],
      "min": [
        0
      ],
      "type": "SCALAR"
    },
    {
      "bufferView": 15,
      "componentType": 5126,
      "count": 5502,
      "max": [
        1.707906723022461,
        0.5181277990341187,
        0.5181276202201843
      ],
      "min": [
        -1.707906723022461,
        -0.5181275010108948,
        -0.5181276202201843
      ],
      "type": "VEC3"
    },
    {
      "bufferView": 16,
      "componentType": 5126,
      "count": 5502,
      "max": [
        0.9999300837516785,
        0.9999350309371948,
        0.9999361634254456
      ],
      "min": [
        -0.999930202960968,
        -0.9999361634254456,
        -0.9999361634254456
      ],
      "type": "VEC3"
    },
    {
      "bufferView": 17,
      "componentType": 5126,
      "count": 5502,
      "max": [
        1,
        0.9657928943634033
      ],
      "min": [
        0,
        0
      ],
      "type": "VEC2"
    },
    {
      "bufferView": 18,
      "componentType": 5126,
      "count": 5502,
      "max": [
        2.20790696144104,
        0.9658676981925964
      ],
      "min": [
        -1.2079068422317505,
        0.03413194417953491
      ],
      "type": "VEC2"
    },
    {
      "bufferView": 19,
      "componentType": 5123,
      "count": 19188,
      "max": [
        5501
      ],
      "min": [
        0
      ],
      "type": "SCALAR"
    },
    {
      "bufferView": 20,
      "componentType": 5126,
      "count": 2978,
      "max": [
        0.4020531475543976,
        3.7494702339172363,
        0.4020531475543976
      ],
      "min": [
        -0.4020532965660095,
        -0.07539211213588715,
        -0.4020533561706543
      ],
      "type": "VEC3"
    },
    {
      "bufferView": 21,
      "componentType": 5126,
      "count": 2978,
      "max": [
        1,
        1,
        1
      ],
      "min": [
        -1,
        -1,
        -1
      ],
      "type": "VEC3"
    },
    {
      "bufferView": 22,
      "componentType": 5126,
      "count": 2978,
      "max": [
        1,
        0.9900000095367432
      ],
      "min": [
        0,
        0
      ],
      "type": "VEC2"
    },
    {
      "bufferView": 23,
      "componentType": 5123,
      "count": 10728,
      "max": [
        2977
      ],
      "min": [
        0
      ],
      "type": "SCALAR"
    },
    {
      "bufferView": 24,
      "componentType": 5126,
      "count": 9988,
      "max": [
        3.1821470260620117,
        0.4928756654262543,
        0.06979703158140182
      ],
      "min": [
        -0.06979703158140182,
        -0.4928756654262543,
        -0.06979703158140182
      ],
      "type": "VEC3"
    },
    {
      "bufferView": 25,
      "componentType": 5126,
      "count": 9988,
      "max": [
        0.9998655319213867,
        0.9999138712882996,
        0.9998655319213867
      ],
      "min": [
        -0.9998655319213867,
        -0.9999138712882996,
        -0.9998655319213867
      ],
      "type": "VEC3"
    },
    {
      "bufferView": 26,
      "componentType": 5126,
      "count": 9988,
      "max": [
        1,
        0.989830732345581
      ],
      "min": [
        0,
        0
      ],
      "type": "VEC2"
    },
    {
      "bufferView": 27,
      "componentType": 5123,
      "count": 38376,
      "max": [
        9987
      ],
      "min": [
        0
      ],
      "type": "SCALAR"
    },
    {
      "bufferView": 28,
      "componentType": 5126,
      "count": 1520,
      "max": [
        0.7975006699562073,
        0.1441439837217331,
        0.7975006699562073
      ],
      "min": [
        -0.7975006699562073,
        -0.1441439837217331,
        -0.7975006699562073
      ],
      "type": "VEC3"
    },
    {
      "bufferView": 29,
      "componentType": 5126,
      "count": 1520,
      "max": [
        1,
        1,
        1
      ],
      "min": [
        -1,
        -0.9994333982467651,
        -1
      ],
      "type": "VEC3"
    },
    {
      "bufferView": 30,
      "componentType": 5126,
      "count": 1520,
      "max": [
        1,
        0.9900000095367432
      ],
      "min": [
        0,
        0
      ],
      "type": "VEC2"
    },
    {
      "bufferView": 31,
      "componentType": 5123,
      "count": 5364,
      "max": [
        1519
      ],
      "min": [
        0
      ],
      "type": "SCALAR"
    }
  ],
  "materials": [
    {
      "pbrMetallicRoughness": {
        "baseColorFactor": [
          0.03954623527052923,
          0.0021246888847058823,
          0.4969329950515914,
          1
        ],
        "metallicFactor": 0.5,
        "roughnessFactor": 0.5
      }
    },
    {
      "pbrMetallicRoughness": {
        "metallicFactor": 0.5,
        "roughnessFactor": 0.5
      }
    },
    {
      "pbrMetallicRoughness": {
        "baseColorFactor": [
          0.10461648408208657,
          0.6307571363387763,
          0.11953842797895521,
          1
        ],
        "metallicFactor": 0.5,
        "roughnessFactor": 0.5
      }
    },
    {
      "pbrMetallicRoughness": {
        "baseColorFactor": [
          0.023153366173251366,
          0.0030352698352941175,
          0.3005437944049895,
          1
        ],
        "metallicFactor": 0.5,
        "roughnessFactor": 0.5
      },
      "emissiveFactor": [
        0.04666508633021928,
        0.02732089163382382,
        0.6795424696265424
      ]
    },
    {
      "pbrMetallicRoughness": {
        "baseColorFactor": [
          0.10461648408208657,
          0.6307571363387763,
          0.11953842797895521,
          1
        ],
        "metallicFactor": 0,
        "roughnessFactor": 1
      },
      "emissiveFactor": [
        0.010960093699395657,
        0.43965718150138855,
        0.01850022003054619
      ],
      "doubleSided": true,
      "name": "Black Plastic",
      "extensions": {
        "KHR_materials_ior": {
          "ior": 1.4500000476837158
        },
        "KHR_materials_specular": {
          "specularFactor": 1,
          "specularColorFactor": [
            0.646733820438385,
            0.646733820438385,
            0.646733820438385
          ]
        }
      }
    },
    {
      "pbrMetallicRoughness": {
        "baseColorFactor": [
          0.02217388478862708,
          0.001214107934117647,
          0.2788942634659966,
          1
        ],
        "metallicFactor": 0.5,
        "roughnessFactor": 0.5
      }
    },
    {
      "pbrMetallicRoughness": {
        "baseColorFactor": [
          0.02121901037134225,
          0.001214107934117647,
          0.2663556047920505,
          1
        ],
        "metallicFactor": 1,
        "roughnessFactor": 1
      },
      "emissiveFactor": [
        0.052860647439956665,
        0.009721217676997185,
        0.2541520893573761
      ],
      "doubleSided": true,
      "name": "Orange Plastic"
    }
  ],
  "meshes": [
    {
      "primitives": [
        {
          "mode": 4,
          "attributes": {
            "POSITION": 0,
            "NORMAL": 1,
            "TEXCOORD_0": 2,
            "TEXCOORD_1": 3
          },
          "indices": 4,
          "material": 0
        }
      ]
    },
    {
      "primitives": [
        {
          "mode": 4,
          "attributes": {
            "POSITION": 5,
            "NORMAL": 6,
            "TEXCOORD_0": 7,
            "TEXCOORD_1": 8
          },
          "indices": 9,
          "material": 1
        }
      ]
    },
    {
      "primitives": [
        {
          "mode": 4,
          "attributes": {
            "POSITION": 10,
            "NORMAL": 11,
            "TEXCOORD_0": 12,
            "TEXCOORD_1": 13
          },
          "indices": 14,
          "material": 2
        }
      ]
    },
    {
      "primitives": [
        {
          "mode": 4,
          "attributes": {
            "POSITION": 15,
            "NORMAL": 16,
            "TEXCOORD_0": 17,
            "TEXCOORD_1": 18
          },
          "indices": 19,
          "material": 3
        }
      ]
    },
    {
      "primitives": [
        {
          "mode": 4,
          "attributes": {
            "POSITION": 20,
            "NORMAL": 21,
            "TEXCOORD_0": 22
          },
          "indices": 23,
          "material": 4
        }
      ]
    },
    {
      "primitives": [
        {
          "mode": 4,
          "attributes": {
            "POSITION": 24,
            "NORMAL": 25,
            "TEXCOORD_0": 26
          },
          "indices": 27,
          "material": 5
        }
      ]
    },
    {
      "primitives": [
        {
          "mode": 4,
          "attributes": {
            "POSITION": 28,
            "NORMAL": 29,
            "TEXCOORD_0": 30
          },
          "indices": 31,
          "material": 6
        }
      ]
    }
  ],
  "extensionsUsed": [
    "KHR_materials_ior",
    "KHR_materials_specular"
  ]
}