<svg width="819" height="200" viewBox="0 0 819 200" fill="none" xmlns="http://www.w3.org/2000/svg">
<path d="M12.3477 60.94C12.3477 50.8933 13.2644 43.1933 15.0977 37.84C17.0044 32.4867 19.6444 28.8567 23.0177 26.95C26.4644 25.0433 31.121 24.09 36.9877 24.09C42.781 24.09 47.5844 25.2633 51.3977 27.61C55.2844 29.8833 58.2177 33.5867 60.1977 38.72C62.1777 43.78 63.1677 50.38 63.1677 58.52H49.5277C49.5277 51.48 48.2077 46.3467 45.5677 43.12C42.9277 39.82 38.7477 38.17 33.0277 38.17C29.2144 38.17 25.8777 39.05 23.0177 40.81C20.231 42.4967 18.0677 45.0633 16.5277 48.51C14.9877 51.8833 14.2177 56.0267 14.2177 60.94H12.3477ZM0.137695 25.74H14.2177L11.1377 46.09H14.2177V88H0.137695V25.74ZM49.5277 58.52H63.1677V88H49.5277V58.52ZM125.301 73.37C122.368 78.87 118.445 82.9767 113.531 85.69C108.691 88.33 103.338 89.65 97.4714 89.65C91.6047 89.65 86.2147 88.22 81.3014 85.36C76.4614 82.4267 72.5747 78.5033 69.6414 73.59C66.7814 68.6033 65.3514 63.1767 65.3514 57.31C65.3514 51.4433 66.7814 46.0533 69.6414 41.14C72.5747 36.2267 76.498 32.34 81.4114 29.48C86.3247 26.5467 91.678 25.08 97.4714 25.08C103.558 25.08 108.948 26.62 113.641 29.7C118.335 32.78 121.928 37.1067 124.421 42.68C126.988 48.18 128.161 54.4867 127.941 61.6H114.851C115.511 56.8333 115.145 52.7267 113.751 49.28C112.358 45.76 110.195 43.0833 107.261 41.25C104.401 39.4167 101.138 38.5 97.4714 38.5C93.8047 38.5 90.5414 39.3433 87.6814 41.03C84.8947 42.7167 82.7314 44.99 81.1914 47.85C79.7247 50.71 78.9914 53.8633 78.9914 57.31C78.9914 60.9033 79.7247 64.13 81.1914 66.99C82.7314 69.85 84.8947 72.0867 87.6814 73.7C90.468 75.24 93.7314 76.01 97.4714 76.01C101.285 76.01 104.731 75.2767 107.811 73.81C110.965 72.3433 113.678 70.07 115.951 66.99L125.301 73.37ZM122.771 52.36V61.6H78.1114V52.36H122.771ZM129.553 25.74H143.853L157.823 88H143.523L129.553 25.74ZM154.193 79.42H163.213L160.683 88H156.723L154.193 79.42ZM172.343 25.74H186.643L177.843 59.95L173.883 88H159.583L172.343 25.74ZM181.913 60.06L172.343 25.74H186.643L200.613 88H186.313L181.913 60.06ZM196.983 79.42H206.003L203.473 88H199.623L196.983 79.42ZM215.133 25.74H229.433L216.783 88H202.483L215.133 25.74ZM259.583 65.34C261.343 68.7867 263.543 71.4267 266.183 73.26C268.896 75.02 272.343 75.9 276.523 75.9C279.676 75.9 282.243 75.68 284.223 75.24C286.203 74.8 287.633 74.14 288.513 73.26C289.466 72.38 289.943 71.3167 289.943 70.07C289.943 68.8233 289.576 67.7967 288.843 66.99C288.183 66.11 286.936 65.34 285.103 64.68C283.27 63.9467 280.63 63.2867 277.183 62.7L273.223 61.93C264.863 60.4633 258.813 58.1167 255.073 54.89C251.333 51.6633 249.463 47.41 249.463 42.13C249.463 39.05 250.343 36.2267 252.103 33.66C253.936 31.0933 256.723 29.04 260.463 27.5C264.276 25.8867 268.97 25.08 274.543 25.08C281.73 25.08 287.45 26.5467 291.703 29.48C296.03 32.34 299.55 36.6667 302.263 42.46L290.493 48.07C288.366 44.55 286.093 42.0933 283.673 40.7C281.253 39.2333 278.21 38.5 274.543 38.5C270.436 38.5 267.466 39.0133 265.633 40.04C263.873 40.9933 262.993 42.2767 262.993 43.89C262.993 45.5767 263.69 46.8967 265.083 47.85C266.476 48.8033 269.19 49.72 273.223 50.6L277.183 51.37C284.003 52.69 289.32 54.2667 293.133 56.1C296.946 57.9333 299.586 60.0233 301.053 62.37C302.52 64.7167 303.253 67.5767 303.253 70.95C303.253 74.03 302.3 76.9633 300.393 79.75C298.56 82.5367 295.626 84.8467 291.593 86.68C287.56 88.44 282.536 89.32 276.523 89.32C271.536 89.32 267.21 88.6967 263.543 87.45C259.876 86.2033 256.686 84.2967 253.973 81.73C251.26 79.09 248.73 75.6067 246.383 71.28L259.583 65.34ZM369.977 -1.3113e-06V25.74H355.897V-1.3113e-06H369.977ZM331.037 89.65C325.977 89.65 321.357 88.22 317.177 85.36C312.997 82.5 309.697 78.6867 307.277 73.92C304.857 69.1533 303.647 64.0567 303.647 58.63C303.647 52.3233 304.821 46.64 307.167 41.58C309.587 36.4467 312.887 32.4133 317.067 29.48C321.247 26.5467 325.904 25.08 331.037 25.08C336.024 25.08 340.387 26.3267 344.127 28.82C347.867 31.3133 350.764 34.98 352.817 39.82C354.871 44.66 355.897 50.49 355.897 57.31C355.897 68.53 353.697 76.7433 349.297 81.95C344.971 87.0833 338.884 89.65 331.037 89.65ZM335.877 75.68C339.177 75.68 342.221 74.8367 345.007 73.15C347.867 71.39 350.104 69.1167 351.717 66.33C353.404 63.5433 354.247 60.6467 354.247 57.64C354.247 54.34 353.441 51.3333 351.827 48.62C350.214 45.8333 348.014 43.67 345.227 42.13C342.441 40.5167 339.324 39.71 335.877 39.71C332.357 39.71 329.167 40.48 326.307 42.02C323.521 43.56 321.357 45.7233 319.817 48.51C318.277 51.2967 317.507 54.45 317.507 57.97C317.507 61.27 318.277 64.2767 319.817 66.99C321.431 69.7033 323.631 71.83 326.417 73.37C329.277 74.91 332.431 75.68 335.877 75.68ZM369.977 25.74V88H355.897L356.997 67.54H354.247V45.98H356.997L355.897 25.74H369.977ZM376.596 -1.3113e-06H390.346V88H376.596V-1.3113e-06ZM429.946 88H415.536L396.066 54.56L404.866 47.74L429.946 88ZM390.346 50.6L414.876 25.74H429.946L390.346 67.21V50.6ZM463.051 32.67V31.9C463.051 22.9533 463.601 16.4267 464.701 12.32C465.875 8.21333 468.808 5.13333 473.501 3.08C478.195 1.02667 485.895 -1.3113e-06 496.601 -1.3113e-06V12.1C489.488 12.0267 484.721 12.3933 482.301 13.2C479.881 14.0067 478.378 15.62 477.791 18.04C477.205 20.46 476.875 25.2267 476.801 32.34V32.67H463.051ZM463.051 32.67H476.801V88H463.051V32.67ZM450.841 25.74H496.601V39.82H450.841V25.74ZM526.777 89.65C520.984 89.65 515.667 88.1833 510.827 85.25C506.061 82.2433 502.321 78.2467 499.607 73.26C496.894 68.2 495.537 62.6633 495.537 56.65C495.537 50.7833 496.894 45.3567 499.607 40.37C502.321 35.31 506.061 31.3133 510.827 28.38C515.667 25.4467 520.984 23.98 526.777 23.98C532.644 23.98 537.924 25.4467 542.617 28.38C547.384 31.3133 551.124 35.31 553.837 40.37C556.551 45.3567 557.907 50.7833 557.907 56.65C557.907 62.6633 556.551 68.2 553.837 73.26C551.124 78.2467 547.384 82.2433 542.617 85.25C537.924 88.1833 532.644 89.65 526.777 89.65ZM526.777 76.01C530.297 76.01 533.341 75.2033 535.907 73.59C538.547 71.9033 540.564 69.5933 541.957 66.66C543.424 63.7267 544.157 60.4267 544.157 56.76C544.157 53.0933 543.424 49.83 541.957 46.97C540.564 44.0367 538.547 41.7633 535.907 40.15C533.267 38.4633 530.224 37.62 526.777 37.62C523.331 37.62 520.287 38.4633 517.647 40.15C515.007 41.7633 512.954 44.0367 511.487 46.97C510.021 49.83 509.287 53.0933 509.287 56.76C509.287 60.4267 510.021 63.7267 511.487 66.66C512.954 69.5933 515.007 71.9033 517.647 73.59C520.287 75.2033 523.331 76.01 526.777 76.01ZM572.316 60.94C572.316 51.1867 573.196 43.78 574.956 38.72C576.79 33.66 579.466 30.25 582.986 28.49C586.58 26.6567 591.676 25.74 598.276 25.74V41.03C590.503 39.6367 584.526 40.7367 580.346 44.33C576.166 47.85 574.076 53.3867 574.076 60.94H572.316ZM560.106 25.63H574.076L570.996 46.09H574.076V88H560.106V25.63ZM667.058 66.88H664.638L665.078 56.1C665.152 52.2133 664.602 49.0233 663.428 46.53C662.255 44.0367 660.348 42.2033 657.708 41.03C655.142 39.7833 651.805 39.16 647.698 39.16C644.105 39.16 641.098 39.8933 638.678 41.36C636.332 42.7533 634.058 44.9533 631.858 47.96L620.638 40.37C624.232 35.2367 628.155 31.4233 632.408 28.93C636.735 26.3633 641.832 25.08 647.698 25.08C654.665 25.08 660.385 26.1433 664.858 28.27C669.405 30.3967 672.778 33.6233 674.978 37.95C677.252 42.2033 678.388 47.5567 678.388 54.01V88H664.858L667.058 66.88ZM641.648 89.54C634.095 89.54 628.448 87.9267 624.708 84.7C620.968 81.4733 619.098 76.89 619.098 70.95C619.098 66.6967 620.198 63.0667 622.398 60.06C624.672 56.98 627.972 54.6333 632.298 53.02C636.698 51.4067 642.125 50.6 648.578 50.6H665.958V59.73H648.578C643.298 59.73 639.412 60.4267 636.918 61.82C634.425 63.14 633.178 65.1933 633.178 67.98C633.178 70.18 634.058 71.9767 635.818 73.37C637.578 74.69 640.218 75.35 643.738 75.35C648.725 75.35 652.722 74.5433 655.728 72.93C658.808 71.2433 661.045 68.8233 662.438 65.67C663.832 62.5167 664.602 58.63 664.748 54.01H666.398C666.398 66.11 664.272 75.0567 660.018 80.85C655.838 86.6433 649.715 89.54 641.648 89.54ZM722.93 89.65C715.083 89.65 708.96 87.0467 704.56 81.84C700.233 76.56 698.07 68.3833 698.07 57.31C698.07 50.4167 699.096 44.55 701.15 39.71C703.203 34.87 706.1 31.24 709.84 28.82C713.58 26.3267 717.943 25.08 722.93 25.08C728.063 25.08 732.72 26.5467 736.9 29.48C741.08 32.4133 744.343 36.4467 746.69 41.58C749.11 46.64 750.32 52.3233 750.32 58.63C750.32 64.13 749.11 69.2633 746.69 74.03C744.27 78.7233 740.97 82.5 736.79 85.36C732.61 88.22 727.99 89.65 722.93 89.65ZM683.99 25.74H698.07L696.97 46.09H699.72V67.54H696.97L698.07 110H683.99V25.74ZM718.09 75.68C721.536 75.68 724.653 74.91 727.44 73.37C730.3 71.83 732.5 69.74 734.04 67.1C735.653 64.3867 736.46 61.3433 736.46 57.97C736.46 54.45 735.69 51.2967 734.15 48.51C732.61 45.7233 730.41 43.56 727.55 42.02C724.763 40.48 721.61 39.71 718.09 39.71C714.716 39.71 711.636 40.48 708.85 42.02C706.063 43.56 703.826 45.6867 702.14 48.4C700.526 51.04 699.72 53.9 699.72 56.98C699.72 60.2067 700.526 63.2867 702.14 66.22C703.753 69.08 705.953 71.39 708.74 73.15C711.6 74.8367 714.716 75.68 718.09 75.68ZM791.366 89.65C783.519 89.65 777.396 87.0467 772.996 81.84C768.669 76.56 766.506 68.3833 766.506 57.31C766.506 50.4167 767.533 44.55 769.586 39.71C771.639 34.87 774.536 31.24 778.276 28.82C782.016 26.3267 786.379 25.08 791.366 25.08C796.499 25.08 801.156 26.5467 805.336 29.48C809.516 32.4133 812.779 36.4467 815.126 41.58C817.546 46.64 818.756 52.3233 818.756 58.63C818.756 64.13 817.546 69.2633 815.126 74.03C812.706 78.7233 809.406 82.5 805.226 85.36C801.046 88.22 796.426 89.65 791.366 89.65ZM752.426 25.74H766.506L765.406 46.09H768.156V67.54H765.406L766.506 110H752.426V25.74ZM786.526 75.68C789.973 75.68 793.089 74.91 795.876 73.37C798.736 71.83 800.936 69.74 802.476 67.1C804.089 64.3867 804.896 61.3433 804.896 57.97C804.896 54.45 804.126 51.2967 802.586 48.51C801.046 45.7233 798.846 43.56 795.986 42.02C793.199 40.48 790.046 39.71 786.526 39.71C783.153 39.71 780.073 40.48 777.286 42.02C774.499 43.56 772.263 45.6867 770.576 48.4C768.963 51.04 768.156 53.9 768.156 56.98C768.156 60.2067 768.963 63.2867 770.576 66.22C772.189 69.08 774.389 71.39 777.176 73.15C780.036 74.8367 783.153 75.68 786.526 75.68ZM64.3932 135.63H78.4732L75.3932 156.09H78.0332C79.7198 147.877 82.7265 142.157 87.0532 138.93C91.3798 135.703 96.4032 134.09 102.123 134.09C106.376 134.09 110.006 134.933 113.013 136.62C116.02 138.233 118.33 140.69 119.943 143.99C121.556 147.29 122.29 151.323 122.143 156.09H124.783C126.47 147.877 129.476 142.157 133.803 138.93C138.13 135.703 143.153 134.09 148.873 134.09C153.86 134.09 158.04 135.153 161.413 137.28C164.786 139.333 167.39 142.89 169.223 147.95C171.056 153.01 171.973 159.867 171.973 168.52V198H158.333V168.52C158.333 161.627 157.086 156.53 154.593 153.23C152.173 149.857 148.506 148.17 143.593 148.17C137.8 148.17 133.29 150.15 130.063 154.11C126.836 157.997 125.223 163.607 125.223 170.94V198H111.583V168.52C111.583 161.627 110.336 156.53 107.843 153.23C105.423 149.857 101.756 148.17 96.8432 148.17C91.0498 148.17 86.5398 150.15 83.3132 154.11C80.0865 157.997 78.4732 163.607 78.4732 170.94V198H64.3932V135.63ZM205.427 199.65C199.634 199.65 194.317 198.183 189.477 195.25C184.71 192.243 180.97 188.247 178.257 183.26C175.544 178.2 174.187 172.663 174.187 166.65C174.187 160.783 175.544 155.357 178.257 150.37C180.97 145.31 184.71 141.313 189.477 138.38C194.317 135.447 199.634 133.98 205.427 133.98C211.294 133.98 216.574 135.447 221.267 138.38C226.034 141.313 229.774 145.31 232.487 150.37C235.2 155.357 236.557 160.783 236.557 166.65C236.557 172.663 235.2 178.2 232.487 183.26C229.774 188.247 226.034 192.243 221.267 195.25C216.574 198.183 211.294 199.65 205.427 199.65ZM205.427 186.01C208.947 186.01 211.99 185.203 214.557 183.59C217.197 181.903 219.214 179.593 220.607 176.66C222.074 173.727 222.807 170.427 222.807 166.76C222.807 163.093 222.074 159.83 220.607 156.97C219.214 154.037 217.197 151.763 214.557 150.15C211.917 148.463 208.874 147.62 205.427 147.62C201.98 147.62 198.937 148.463 196.297 150.15C193.657 151.763 191.604 154.037 190.137 156.97C188.67 159.83 187.937 163.093 187.937 166.76C187.937 170.427 188.67 173.727 190.137 176.66C191.604 179.593 193.657 181.903 196.297 183.59C198.937 185.203 201.98 186.01 205.427 186.01ZM250.966 170.94C250.966 160.893 251.883 153.193 253.716 147.84C255.623 142.487 258.263 138.857 261.636 136.95C265.083 135.043 269.739 134.09 275.606 134.09C281.399 134.09 286.203 135.263 290.016 137.61C293.903 139.883 296.836 143.587 298.816 148.72C300.796 153.78 301.786 160.38 301.786 168.52H288.146C288.146 161.48 286.826 156.347 284.186 153.12C281.546 149.82 277.366 148.17 271.646 148.17C267.833 148.17 264.496 149.05 261.636 150.81C258.849 152.497 256.686 155.063 255.146 158.51C253.606 161.883 252.836 166.027 252.836 170.94H250.966ZM238.756 135.74H252.836L249.756 156.09H252.836V198H238.756V135.74ZM288.146 168.52H301.786V198H288.146V168.52ZM363.92 183.37C360.986 188.87 357.063 192.977 352.15 195.69C347.31 198.33 341.956 199.65 336.09 199.65C330.223 199.65 324.833 198.22 319.92 195.36C315.08 192.427 311.193 188.503 308.26 183.59C305.4 178.603 303.97 173.177 303.97 167.31C303.97 161.443 305.4 156.053 308.26 151.14C311.193 146.227 315.116 142.34 320.03 139.48C324.943 136.547 330.296 135.08 336.09 135.08C342.176 135.08 347.566 136.62 352.26 139.7C356.953 142.78 360.546 147.107 363.04 152.68C365.606 158.18 366.78 164.487 366.56 171.6H353.47C354.13 166.833 353.763 162.727 352.37 159.28C350.976 155.76 348.813 153.083 345.88 151.25C343.02 149.417 339.756 148.5 336.09 148.5C332.423 148.5 329.16 149.343 326.3 151.03C323.513 152.717 321.35 154.99 319.81 157.85C318.343 160.71 317.61 163.863 317.61 167.31C317.61 170.903 318.343 174.13 319.81 176.99C321.35 179.85 323.513 182.087 326.3 183.7C329.086 185.24 332.35 186.01 336.09 186.01C339.903 186.01 343.35 185.277 346.43 183.81C349.583 182.343 352.296 180.07 354.57 176.99L363.92 183.37ZM361.39 162.36V171.6H316.73V162.36H361.39ZM410.327 198C399.473 198 391.737 197.12 387.117 195.36C382.57 193.6 379.673 190.667 378.427 186.56C377.18 182.38 376.557 175.45 376.557 165.77H390.307C390.307 172.297 390.637 176.697 391.297 178.97C392.03 181.243 393.607 182.71 396.027 183.37C398.447 183.957 403.213 184.25 410.327 184.25V198ZM376.557 114.4H390.307V165.77H376.557V114.4ZM364.457 135.74H410.217V149.82H364.457V135.74ZM416.913 135.74H430.663V198H416.913V135.74ZM423.843 130.13C421.57 130.13 419.663 129.397 418.123 127.93C416.583 126.39 415.813 124.52 415.813 122.32C415.813 120.12 416.583 118.25 418.123 116.71C419.663 115.17 421.57 114.4 423.843 114.4C425.97 114.4 427.766 115.17 429.233 116.71C430.773 118.25 431.543 120.12 431.543 122.32C431.543 124.52 430.773 126.39 429.233 127.93C427.766 129.397 425.97 130.13 423.843 130.13ZM474.021 135.74H488.101L448.501 198H433.761L474.021 135.74ZM482.491 135.74L477.651 148.94H437.501V135.74H482.491ZM489.421 184.8V198H437.501L443.661 184.8H489.421ZM539.523 176.88H537.103L537.543 166.1C537.616 162.213 537.066 159.023 535.893 156.53C534.719 154.037 532.813 152.203 530.173 151.03C527.606 149.783 524.269 149.16 520.163 149.16C516.569 149.16 513.563 149.893 511.143 151.36C508.796 152.753 506.523 154.953 504.323 157.96L493.103 150.37C496.696 145.237 500.619 141.423 504.873 138.93C509.199 136.363 514.296 135.08 520.163 135.08C527.129 135.08 532.849 136.143 537.323 138.27C541.869 140.397 545.243 143.623 547.443 147.95C549.716 152.203 550.853 157.557 550.853 164.01V198H537.323L539.523 176.88ZM514.113 199.54C506.559 199.54 500.913 197.927 497.173 194.7C493.433 191.473 491.563 186.89 491.563 180.95C491.563 176.697 492.663 173.067 494.863 170.06C497.136 166.98 500.436 164.633 504.763 163.02C509.163 161.407 514.589 160.6 521.043 160.6H538.423V169.73H521.043C515.763 169.73 511.876 170.427 509.383 171.82C506.889 173.14 505.643 175.193 505.643 177.98C505.643 180.18 506.523 181.977 508.283 183.37C510.043 184.69 512.683 185.35 516.203 185.35C521.189 185.35 525.186 184.543 528.193 182.93C531.273 181.243 533.509 178.823 534.903 175.67C536.296 172.517 537.066 168.63 537.213 164.01H538.863C538.863 176.11 536.736 185.057 532.483 190.85C528.303 196.643 522.179 199.54 514.113 199.54ZM594.59 198C583.736 198 576 197.12 571.38 195.36C566.833 193.6 563.936 190.667 562.69 186.56C561.443 182.38 560.82 175.45 560.82 165.77H574.57C574.57 172.297 574.9 176.697 575.56 178.97C576.293 181.243 577.87 182.71 580.29 183.37C582.71 183.957 587.476 184.25 594.59 184.25V198ZM560.82 114.4H574.57V165.77H560.82V114.4ZM548.72 135.74H594.48V149.82H548.72V135.74ZM601.176 135.74H614.926V198H601.176V135.74ZM608.106 130.13C605.833 130.13 603.926 129.397 602.386 127.93C600.846 126.39 600.076 124.52 600.076 122.32C600.076 120.12 600.846 118.25 602.386 116.71C603.926 115.17 605.833 114.4 608.106 114.4C610.233 114.4 612.029 115.17 613.496 116.71C615.036 118.25 615.806 120.12 615.806 122.32C615.806 124.52 615.036 126.39 613.496 127.93C612.029 129.397 610.233 130.13 608.106 130.13ZM649.264 199.65C643.471 199.65 638.154 198.183 633.314 195.25C628.547 192.243 624.807 188.247 622.094 183.26C619.381 178.2 618.024 172.663 618.024 166.65C618.024 160.783 619.381 155.357 622.094 150.37C624.807 145.31 628.547 141.313 633.314 138.38C638.154 135.447 643.471 133.98 649.264 133.98C655.131 133.98 660.411 135.447 665.104 138.38C669.871 141.313 673.611 145.31 676.324 150.37C679.037 155.357 680.394 160.783 680.394 166.65C680.394 172.663 679.037 178.2 676.324 183.26C673.611 188.247 669.871 192.243 665.104 195.25C660.411 198.183 655.131 199.65 649.264 199.65ZM649.264 186.01C652.784 186.01 655.827 185.203 658.394 183.59C661.034 181.903 663.051 179.593 664.444 176.66C665.911 173.727 666.644 170.427 666.644 166.76C666.644 163.093 665.911 159.83 664.444 156.97C663.051 154.037 661.034 151.763 658.394 150.15C655.754 148.463 652.711 147.62 649.264 147.62C645.817 147.62 642.774 148.463 640.134 150.15C637.494 151.763 635.441 154.037 633.974 156.97C632.507 159.83 631.774 163.093 631.774 166.76C631.774 170.427 632.507 173.727 633.974 176.66C635.441 179.593 637.494 181.903 640.134 183.59C642.774 185.203 645.817 186.01 649.264 186.01ZM694.803 170.94C694.803 160.893 695.72 153.193 697.553 147.84C699.46 142.487 702.1 138.857 705.473 136.95C708.92 135.043 713.576 134.09 719.443 134.09C725.236 134.09 730.04 135.263 733.853 137.61C737.74 139.883 740.673 143.587 742.653 148.72C744.633 153.78 745.623 160.38 745.623 168.52H731.983C731.983 161.48 730.663 156.347 728.023 153.12C725.383 149.82 721.203 148.17 715.483 148.17C711.67 148.17 708.333 149.05 705.473 150.81C702.686 152.497 700.523 155.063 698.983 158.51C697.443 161.883 696.673 166.027 696.673 170.94H694.803ZM682.593 135.74H696.673L693.593 156.09H696.673V198H682.593V135.74ZM731.983 168.52H745.623V198H731.983V168.52Z" fill="#010101"/>
</svg>
